<mxfile host="app.diagrams.net" modified="2024-06-29T07:18:50.711Z" agent="Mozilla/5.0 (Windows NT 10.0; Win64; x64) AppleWebKit/537.36 (KHTML, like Gecko) Chrome/126.0.0.0 Safari/537.36 Edg/126.0.0.0" etag="MXXXgXOGB1MHP_ZaUt8M" version="24.6.4" type="device">
  <diagram name="第 1 页" id="m_81zAvXT7221VteNaeY">
    <mxGraphModel dx="1813" dy="433" grid="1" gridSize="10" guides="1" tooltips="1" connect="1" arrows="1" fold="1" page="1" pageScale="1" pageWidth="827" pageHeight="1169" math="0" shadow="0">
      <root>
        <mxCell id="0" />
        <mxCell id="1" parent="0" />
        <mxCell id="Kga4_z5G7O0Kx7oM56VR-30" style="edgeStyle=orthogonalEdgeStyle;rounded=0;orthogonalLoop=1;jettySize=auto;html=1;exitX=0.75;exitY=0;exitDx=0;exitDy=0;entryX=0;entryY=0.5;entryDx=0;entryDy=0;" edge="1" parent="1" source="Kga4_z5G7O0Kx7oM56VR-1" target="Kga4_z5G7O0Kx7oM56VR-22">
          <mxGeometry relative="1" as="geometry" />
        </mxCell>
        <mxCell id="Kga4_z5G7O0Kx7oM56VR-40" style="edgeStyle=orthogonalEdgeStyle;rounded=0;orthogonalLoop=1;jettySize=auto;html=1;exitX=1;exitY=0.5;exitDx=0;exitDy=0;entryX=0.5;entryY=0;entryDx=0;entryDy=0;" edge="1" parent="1" source="Kga4_z5G7O0Kx7oM56VR-1" target="Kga4_z5G7O0Kx7oM56VR-24">
          <mxGeometry relative="1" as="geometry" />
        </mxCell>
        <mxCell id="Kga4_z5G7O0Kx7oM56VR-84" style="edgeStyle=orthogonalEdgeStyle;rounded=0;orthogonalLoop=1;jettySize=auto;html=1;exitX=1.02;exitY=0.14;exitDx=0;exitDy=0;entryX=0.25;entryY=1;entryDx=0;entryDy=0;exitPerimeter=0;" edge="1" parent="1" source="Kga4_z5G7O0Kx7oM56VR-3" target="Kga4_z5G7O0Kx7oM56VR-1">
          <mxGeometry relative="1" as="geometry" />
        </mxCell>
        <mxCell id="Kga4_z5G7O0Kx7oM56VR-3" value="前端提供" style="swimlane;fontStyle=1;align=center;verticalAlign=top;childLayout=stackLayout;horizontal=1;startSize=26;horizontalStack=0;resizeParent=1;resizeParentMax=0;resizeLast=0;collapsible=1;marginBottom=0;whiteSpace=wrap;html=1;fillColor=#CCFFCC;" vertex="1" parent="1">
          <mxGeometry x="-160" y="200" width="100" height="86" as="geometry" />
        </mxCell>
        <mxCell id="Kga4_z5G7O0Kx7oM56VR-4" value="1.SDC" style="text;strokeColor=none;fillColor=#CCFFCC;align=left;verticalAlign=top;spacingLeft=4;spacingRight=4;overflow=hidden;rotatable=0;points=[[0,0.5],[1,0.5]];portConstraint=eastwest;whiteSpace=wrap;html=1;" vertex="1" parent="Kga4_z5G7O0Kx7oM56VR-3">
          <mxGeometry y="26" width="100" height="26" as="geometry" />
        </mxCell>
        <mxCell id="Kga4_z5G7O0Kx7oM56VR-5" value="" style="line;strokeWidth=1;fillColor=#CCFFCC;align=left;verticalAlign=middle;spacingTop=-1;spacingLeft=3;spacingRight=3;rotatable=0;labelPosition=right;points=[];portConstraint=eastwest;strokeColor=inherit;" vertex="1" parent="Kga4_z5G7O0Kx7oM56VR-3">
          <mxGeometry y="52" width="100" height="8" as="geometry" />
        </mxCell>
        <mxCell id="Kga4_z5G7O0Kx7oM56VR-6" value="2.NETLIST" style="text;strokeColor=none;fillColor=#CCFFCC;align=left;verticalAlign=top;spacingLeft=4;spacingRight=4;overflow=hidden;rotatable=0;points=[[0,0.5],[1,0.5]];portConstraint=eastwest;whiteSpace=wrap;html=1;" vertex="1" parent="Kga4_z5G7O0Kx7oM56VR-3">
          <mxGeometry y="60" width="100" height="26" as="geometry" />
        </mxCell>
        <mxCell id="Kga4_z5G7O0Kx7oM56VR-83" style="edgeStyle=orthogonalEdgeStyle;rounded=0;orthogonalLoop=1;jettySize=auto;html=1;exitX=1;exitY=0.125;exitDx=0;exitDy=0;entryX=0.5;entryY=1;entryDx=0;entryDy=0;exitPerimeter=0;" edge="1" parent="1" source="Kga4_z5G7O0Kx7oM56VR-7" target="Kga4_z5G7O0Kx7oM56VR-1">
          <mxGeometry relative="1" as="geometry" />
        </mxCell>
        <mxCell id="Kga4_z5G7O0Kx7oM56VR-92" style="edgeStyle=orthogonalEdgeStyle;rounded=0;orthogonalLoop=1;jettySize=auto;html=1;exitX=1;exitY=0;exitDx=0;exitDy=0;entryX=0;entryY=0.5;entryDx=0;entryDy=0;" edge="1" parent="1" source="Kga4_z5G7O0Kx7oM56VR-7" target="Kga4_z5G7O0Kx7oM56VR-59">
          <mxGeometry relative="1" as="geometry">
            <Array as="points">
              <mxPoint x="-60" y="310" />
              <mxPoint x="30" y="310" />
              <mxPoint x="30" y="670" />
              <mxPoint x="120" y="670" />
            </Array>
          </mxGeometry>
        </mxCell>
        <mxCell id="Kga4_z5G7O0Kx7oM56VR-96" style="edgeStyle=orthogonalEdgeStyle;rounded=0;orthogonalLoop=1;jettySize=auto;html=1;exitX=1;exitY=0.5;exitDx=0;exitDy=0;entryX=0.25;entryY=0;entryDx=0;entryDy=0;" edge="1" parent="1" source="Kga4_z5G7O0Kx7oM56VR-7" target="Kga4_z5G7O0Kx7oM56VR-93">
          <mxGeometry relative="1" as="geometry" />
        </mxCell>
        <mxCell id="Kga4_z5G7O0Kx7oM56VR-7" value="foundry提供" style="swimlane;fontStyle=1;align=center;verticalAlign=top;childLayout=stackLayout;horizontal=1;startSize=26;horizontalStack=0;resizeParent=1;resizeParentMax=0;resizeLast=0;collapsible=1;marginBottom=0;whiteSpace=wrap;html=1;fillColor=#CCFFCC;" vertex="1" parent="1">
          <mxGeometry x="-160" y="293" width="100" height="128" as="geometry" />
        </mxCell>
        <mxCell id="Kga4_z5G7O0Kx7oM56VR-8" value="1.LEF" style="text;strokeColor=none;fillColor=#CCFFCC;align=left;verticalAlign=top;spacingLeft=4;spacingRight=4;overflow=hidden;rotatable=0;points=[[0,0.5],[1,0.5]];portConstraint=eastwest;whiteSpace=wrap;html=1;" vertex="1" parent="Kga4_z5G7O0Kx7oM56VR-7">
          <mxGeometry y="26" width="100" height="26" as="geometry" />
        </mxCell>
        <mxCell id="Kga4_z5G7O0Kx7oM56VR-9" value="" style="line;strokeWidth=1;fillColor=#CCFFCC;align=left;verticalAlign=middle;spacingTop=-1;spacingLeft=3;spacingRight=3;rotatable=0;labelPosition=right;points=[];portConstraint=eastwest;strokeColor=inherit;" vertex="1" parent="Kga4_z5G7O0Kx7oM56VR-7">
          <mxGeometry y="52" width="100" height="8" as="geometry" />
        </mxCell>
        <mxCell id="Kga4_z5G7O0Kx7oM56VR-10" value="2.LIB" style="text;strokeColor=none;fillColor=#CCFFCC;align=left;verticalAlign=top;spacingLeft=4;spacingRight=4;overflow=hidden;rotatable=0;points=[[0,0.5],[1,0.5]];portConstraint=eastwest;whiteSpace=wrap;html=1;" vertex="1" parent="Kga4_z5G7O0Kx7oM56VR-7">
          <mxGeometry y="60" width="100" height="30" as="geometry" />
        </mxCell>
        <mxCell id="Kga4_z5G7O0Kx7oM56VR-17" value="" style="line;strokeWidth=1;fillColor=#CCFFCC;align=left;verticalAlign=middle;spacingTop=-1;spacingLeft=3;spacingRight=3;rotatable=0;labelPosition=right;points=[];portConstraint=eastwest;strokeColor=inherit;" vertex="1" parent="Kga4_z5G7O0Kx7oM56VR-7">
          <mxGeometry y="90" width="100" height="8" as="geometry" />
        </mxCell>
        <mxCell id="Kga4_z5G7O0Kx7oM56VR-16" value="3.TECH LEF" style="text;strokeColor=none;fillColor=#CCFFCC;align=left;verticalAlign=top;spacingLeft=4;spacingRight=4;overflow=hidden;rotatable=0;points=[[0,0.5],[1,0.5]];portConstraint=eastwest;whiteSpace=wrap;html=1;" vertex="1" parent="Kga4_z5G7O0Kx7oM56VR-7">
          <mxGeometry y="98" width="100" height="30" as="geometry" />
        </mxCell>
        <mxCell id="Kga4_z5G7O0Kx7oM56VR-46" style="edgeStyle=orthogonalEdgeStyle;rounded=0;orthogonalLoop=1;jettySize=auto;html=1;exitX=0;exitY=0.75;exitDx=0;exitDy=0;entryX=1;entryY=0.25;entryDx=0;entryDy=0;" edge="1" parent="1" source="Kga4_z5G7O0Kx7oM56VR-22" target="Kga4_z5G7O0Kx7oM56VR-45">
          <mxGeometry relative="1" as="geometry" />
        </mxCell>
        <mxCell id="Kga4_z5G7O0Kx7oM56VR-94" style="edgeStyle=orthogonalEdgeStyle;rounded=0;orthogonalLoop=1;jettySize=auto;html=1;exitX=0.25;exitY=1;exitDx=0;exitDy=0;entryX=0.75;entryY=0;entryDx=0;entryDy=0;" edge="1" parent="1" source="Kga4_z5G7O0Kx7oM56VR-22" target="Kga4_z5G7O0Kx7oM56VR-93">
          <mxGeometry relative="1" as="geometry" />
        </mxCell>
        <mxCell id="Kga4_z5G7O0Kx7oM56VR-22" value="SPICE NETLIST" style="shape=process;whiteSpace=wrap;html=1;backgroundOutline=1;fillColor=#FF9999;" vertex="1" parent="1">
          <mxGeometry x="304" y="110" width="110" height="34" as="geometry" />
        </mxCell>
        <mxCell id="Kga4_z5G7O0Kx7oM56VR-44" style="edgeStyle=orthogonalEdgeStyle;rounded=0;orthogonalLoop=1;jettySize=auto;html=1;exitX=0;exitY=0.75;exitDx=0;exitDy=0;entryX=0.75;entryY=0;entryDx=0;entryDy=0;" edge="1" parent="1" source="Kga4_z5G7O0Kx7oM56VR-23" target="Kga4_z5G7O0Kx7oM56VR-31">
          <mxGeometry relative="1" as="geometry" />
        </mxCell>
        <mxCell id="Kga4_z5G7O0Kx7oM56VR-77" style="edgeStyle=orthogonalEdgeStyle;rounded=0;orthogonalLoop=1;jettySize=auto;html=1;exitX=0;exitY=0.25;exitDx=0;exitDy=0;entryX=1;entryY=0.5;entryDx=0;entryDy=0;" edge="1" parent="1" source="Kga4_z5G7O0Kx7oM56VR-23" target="Kga4_z5G7O0Kx7oM56VR-73">
          <mxGeometry relative="1" as="geometry" />
        </mxCell>
        <mxCell id="Kga4_z5G7O0Kx7oM56VR-23" value="GDS" style="shape=process;whiteSpace=wrap;html=1;backgroundOutline=1;fillColor=#FF9999;" vertex="1" parent="1">
          <mxGeometry x="430" y="190" width="110" height="34" as="geometry" />
        </mxCell>
        <mxCell id="Kga4_z5G7O0Kx7oM56VR-39" style="edgeStyle=orthogonalEdgeStyle;rounded=0;orthogonalLoop=1;jettySize=auto;html=1;exitX=0.5;exitY=1;exitDx=0;exitDy=0;entryX=0.75;entryY=0;entryDx=0;entryDy=0;" edge="1" parent="1" source="Kga4_z5G7O0Kx7oM56VR-24" target="Kga4_z5G7O0Kx7oM56VR-31">
          <mxGeometry relative="1" as="geometry" />
        </mxCell>
        <mxCell id="Kga4_z5G7O0Kx7oM56VR-60" style="edgeStyle=orthogonalEdgeStyle;rounded=0;orthogonalLoop=1;jettySize=auto;html=1;exitX=0;exitY=0.5;exitDx=0;exitDy=0;entryX=1;entryY=0.5;entryDx=0;entryDy=0;" edge="1" parent="1" source="Kga4_z5G7O0Kx7oM56VR-24" target="Kga4_z5G7O0Kx7oM56VR-59">
          <mxGeometry relative="1" as="geometry" />
        </mxCell>
        <mxCell id="Kga4_z5G7O0Kx7oM56VR-24" value="DEF" style="shape=process;whiteSpace=wrap;html=1;backgroundOutline=1;fillColor=#FF9999;" vertex="1" parent="1">
          <mxGeometry x="570" y="280" width="110" height="34" as="geometry" />
        </mxCell>
        <mxCell id="Kga4_z5G7O0Kx7oM56VR-50" style="edgeStyle=orthogonalEdgeStyle;rounded=0;orthogonalLoop=1;jettySize=auto;html=1;exitX=0;exitY=0.25;exitDx=0;exitDy=0;entryX=1;entryY=0.5;entryDx=0;entryDy=0;" edge="1" parent="1" source="Kga4_z5G7O0Kx7oM56VR-25" target="Kga4_z5G7O0Kx7oM56VR-45">
          <mxGeometry relative="1" as="geometry" />
        </mxCell>
        <mxCell id="Kga4_z5G7O0Kx7oM56VR-61" style="edgeStyle=orthogonalEdgeStyle;rounded=0;orthogonalLoop=1;jettySize=auto;html=1;exitX=0;exitY=0.75;exitDx=0;exitDy=0;entryX=1;entryY=0.75;entryDx=0;entryDy=0;" edge="1" parent="1" source="Kga4_z5G7O0Kx7oM56VR-25" target="Kga4_z5G7O0Kx7oM56VR-59">
          <mxGeometry relative="1" as="geometry" />
        </mxCell>
        <mxCell id="Kga4_z5G7O0Kx7oM56VR-25" value="SPEF" style="shape=process;whiteSpace=wrap;html=1;backgroundOutline=1;fillColor=#FF9999;" vertex="1" parent="1">
          <mxGeometry x="700" y="363" width="110" height="34" as="geometry" />
        </mxCell>
        <mxCell id="Kga4_z5G7O0Kx7oM56VR-43" style="edgeStyle=orthogonalEdgeStyle;rounded=0;orthogonalLoop=1;jettySize=auto;html=1;exitX=1;exitY=0.5;exitDx=0;exitDy=0;entryX=0;entryY=0.5;entryDx=0;entryDy=0;" edge="1" parent="1" source="Kga4_z5G7O0Kx7oM56VR-31" target="Kga4_z5G7O0Kx7oM56VR-25">
          <mxGeometry relative="1" as="geometry" />
        </mxCell>
        <mxCell id="Kga4_z5G7O0Kx7oM56VR-87" style="edgeStyle=orthogonalEdgeStyle;rounded=0;orthogonalLoop=1;jettySize=auto;html=1;exitX=0.981;exitY=0.155;exitDx=0;exitDy=0;entryX=0.25;entryY=1;entryDx=0;entryDy=0;exitPerimeter=0;" edge="1" parent="1" source="Kga4_z5G7O0Kx7oM56VR-35" target="Kga4_z5G7O0Kx7oM56VR-31">
          <mxGeometry relative="1" as="geometry" />
        </mxCell>
        <mxCell id="Kga4_z5G7O0Kx7oM56VR-35" value="foundry提供" style="swimlane;fontStyle=1;align=center;verticalAlign=top;childLayout=stackLayout;horizontal=1;startSize=26;horizontalStack=0;resizeParent=1;resizeParentMax=0;resizeLast=0;collapsible=1;marginBottom=0;whiteSpace=wrap;html=1;fillColor=#CCFFCC;" vertex="1" parent="1">
          <mxGeometry x="-160" y="430" width="105" height="110" as="geometry" />
        </mxCell>
        <mxCell id="Kga4_z5G7O0Kx7oM56VR-36" value="1.map file" style="text;strokeColor=none;fillColor=#CCFFCC;align=left;verticalAlign=top;spacingLeft=4;spacingRight=4;overflow=hidden;rotatable=0;points=[[0,0.5],[1,0.5]];portConstraint=eastwest;whiteSpace=wrap;html=1;" vertex="1" parent="Kga4_z5G7O0Kx7oM56VR-35">
          <mxGeometry y="26" width="105" height="26" as="geometry" />
        </mxCell>
        <mxCell id="Kga4_z5G7O0Kx7oM56VR-37" value="" style="line;strokeWidth=1;fillColor=#CCFFCC;align=left;verticalAlign=middle;spacingTop=-1;spacingLeft=3;spacingRight=3;rotatable=0;labelPosition=right;points=[];portConstraint=eastwest;strokeColor=inherit;" vertex="1" parent="Kga4_z5G7O0Kx7oM56VR-35">
          <mxGeometry y="52" width="105" height="8" as="geometry" />
        </mxCell>
        <mxCell id="Kga4_z5G7O0Kx7oM56VR-38" value="2.nxtgrd(抽寄生参数的工艺文件)" style="text;strokeColor=none;fillColor=#CCFFCC;align=left;verticalAlign=top;spacingLeft=4;spacingRight=4;overflow=hidden;rotatable=0;points=[[0,0.5],[1,0.5]];portConstraint=eastwest;whiteSpace=wrap;html=1;" vertex="1" parent="Kga4_z5G7O0Kx7oM56VR-35">
          <mxGeometry y="60" width="105" height="50" as="geometry" />
        </mxCell>
        <mxCell id="Kga4_z5G7O0Kx7oM56VR-58" style="edgeStyle=orthogonalEdgeStyle;rounded=0;orthogonalLoop=1;jettySize=auto;html=1;exitX=1;exitY=0.75;exitDx=0;exitDy=0;entryX=0;entryY=0.5;entryDx=0;entryDy=0;" edge="1" parent="1" source="Kga4_z5G7O0Kx7oM56VR-45" target="Kga4_z5G7O0Kx7oM56VR-57">
          <mxGeometry relative="1" as="geometry" />
        </mxCell>
        <mxCell id="Kga4_z5G7O0Kx7oM56VR-45" value="PA(PTPX)" style="rounded=1;whiteSpace=wrap;html=1;fillColor=#FFB366;" vertex="1" parent="1">
          <mxGeometry x="120" y="480" width="90" height="40" as="geometry" />
        </mxCell>
        <mxCell id="Kga4_z5G7O0Kx7oM56VR-47" style="edgeStyle=orthogonalEdgeStyle;rounded=0;orthogonalLoop=1;jettySize=auto;html=1;exitX=1;exitY=0.5;exitDx=0;exitDy=0;entryX=0;entryY=0.5;entryDx=0;entryDy=0;" edge="1" parent="1" source="Kga4_z5G7O0Kx7oM56VR-10" target="Kga4_z5G7O0Kx7oM56VR-45">
          <mxGeometry relative="1" as="geometry" />
        </mxCell>
        <mxCell id="Kga4_z5G7O0Kx7oM56VR-51" value="foundry提供" style="swimlane;fontStyle=1;align=center;verticalAlign=top;childLayout=stackLayout;horizontal=1;startSize=26;horizontalStack=0;resizeParent=1;resizeParentMax=0;resizeLast=0;collapsible=1;marginBottom=0;whiteSpace=wrap;html=1;fillColor=#CCFFCC;" vertex="1" parent="1">
          <mxGeometry x="-160" y="550" width="105" height="90" as="geometry" />
        </mxCell>
        <mxCell id="Kga4_z5G7O0Kx7oM56VR-52" value="1.ToggleRate,不同信号net的波形，记录翻转率" style="text;strokeColor=none;fillColor=#CCFFCC;align=left;verticalAlign=top;spacingLeft=4;spacingRight=4;overflow=hidden;rotatable=0;points=[[0,0.5],[1,0.5]];portConstraint=eastwest;whiteSpace=wrap;html=1;" vertex="1" parent="Kga4_z5G7O0Kx7oM56VR-51">
          <mxGeometry y="26" width="105" height="64" as="geometry" />
        </mxCell>
        <mxCell id="Kga4_z5G7O0Kx7oM56VR-56" style="edgeStyle=orthogonalEdgeStyle;rounded=0;orthogonalLoop=1;jettySize=auto;html=1;exitX=1;exitY=0.5;exitDx=0;exitDy=0;entryX=0.356;entryY=0.975;entryDx=0;entryDy=0;entryPerimeter=0;" edge="1" parent="1" source="Kga4_z5G7O0Kx7oM56VR-52" target="Kga4_z5G7O0Kx7oM56VR-45">
          <mxGeometry relative="1" as="geometry">
            <mxPoint x="240" y="540" as="targetPoint" />
            <Array as="points">
              <mxPoint x="-55" y="580" />
              <mxPoint x="160" y="580" />
              <mxPoint x="160" y="519" />
            </Array>
          </mxGeometry>
        </mxCell>
        <mxCell id="Kga4_z5G7O0Kx7oM56VR-65" style="edgeStyle=orthogonalEdgeStyle;rounded=0;orthogonalLoop=1;jettySize=auto;html=1;exitX=0.5;exitY=1;exitDx=0;exitDy=0;entryX=1;entryY=0.25;entryDx=0;entryDy=0;" edge="1" parent="1" source="Kga4_z5G7O0Kx7oM56VR-57" target="Kga4_z5G7O0Kx7oM56VR-59">
          <mxGeometry relative="1" as="geometry" />
        </mxCell>
        <mxCell id="Kga4_z5G7O0Kx7oM56VR-57" value="ipf(记录Instace实际电压)" style="shape=process;whiteSpace=wrap;html=1;backgroundOutline=1;fillColor=#FF9999;" vertex="1" parent="1">
          <mxGeometry x="730" y="490" width="110" height="34" as="geometry" />
        </mxCell>
        <mxCell id="Kga4_z5G7O0Kx7oM56VR-59" value="IR(redhawk)/static" style="rounded=1;whiteSpace=wrap;html=1;fillColor=#FFB366;" vertex="1" parent="1">
          <mxGeometry x="120" y="641" width="120" height="40" as="geometry" />
        </mxCell>
        <mxCell id="Kga4_z5G7O0Kx7oM56VR-66" value="foundry提供" style="swimlane;fontStyle=1;align=center;verticalAlign=top;childLayout=stackLayout;horizontal=1;startSize=26;horizontalStack=0;resizeParent=1;resizeParentMax=0;resizeLast=0;collapsible=1;marginBottom=0;whiteSpace=wrap;html=1;fillColor=#CCFFCC;" vertex="1" parent="1">
          <mxGeometry x="-160" y="655" width="105" height="90" as="geometry" />
        </mxCell>
        <mxCell id="Kga4_z5G7O0Kx7oM56VR-67" value="1.ploc（包含design中所有的供电信息）" style="text;strokeColor=none;fillColor=#CCFFCC;align=left;verticalAlign=top;spacingLeft=4;spacingRight=4;overflow=hidden;rotatable=0;points=[[0,0.5],[1,0.5]];portConstraint=eastwest;whiteSpace=wrap;html=1;" vertex="1" parent="Kga4_z5G7O0Kx7oM56VR-66">
          <mxGeometry y="26" width="105" height="64" as="geometry" />
        </mxCell>
        <mxCell id="Kga4_z5G7O0Kx7oM56VR-73" value="PV" style="rounded=1;whiteSpace=wrap;html=1;fillColor=#FFB366;" vertex="1" parent="1">
          <mxGeometry x="240" y="788" width="90" height="40" as="geometry" />
        </mxCell>
        <mxCell id="Kga4_z5G7O0Kx7oM56VR-74" value="foundry提供" style="swimlane;fontStyle=1;align=center;verticalAlign=top;childLayout=stackLayout;horizontal=1;startSize=26;horizontalStack=0;resizeParent=1;resizeParentMax=0;resizeLast=0;collapsible=1;marginBottom=0;whiteSpace=wrap;html=1;fillColor=#CCFFCC;" vertex="1" parent="1">
          <mxGeometry x="-160" y="760" width="105" height="70" as="geometry" />
        </mxCell>
        <mxCell id="Kga4_z5G7O0Kx7oM56VR-75" value="1.rule file&lt;div&gt;2.cdl&lt;/div&gt;" style="text;strokeColor=none;fillColor=#CCFFCC;align=left;verticalAlign=top;spacingLeft=4;spacingRight=4;overflow=hidden;rotatable=0;points=[[0,0.5],[1,0.5]];portConstraint=eastwest;whiteSpace=wrap;html=1;" vertex="1" parent="Kga4_z5G7O0Kx7oM56VR-74">
          <mxGeometry y="26" width="105" height="44" as="geometry" />
        </mxCell>
        <mxCell id="Kga4_z5G7O0Kx7oM56VR-76" style="edgeStyle=orthogonalEdgeStyle;rounded=0;orthogonalLoop=1;jettySize=auto;html=1;exitX=1;exitY=0.5;exitDx=0;exitDy=0;entryX=0;entryY=0.5;entryDx=0;entryDy=0;" edge="1" parent="1" source="Kga4_z5G7O0Kx7oM56VR-75" target="Kga4_z5G7O0Kx7oM56VR-73">
          <mxGeometry relative="1" as="geometry" />
        </mxCell>
        <mxCell id="Kga4_z5G7O0Kx7oM56VR-78" value="" style="rounded=0;whiteSpace=wrap;html=1;" vertex="1" parent="1">
          <mxGeometry x="-520" y="97" width="120" height="60" as="geometry" />
        </mxCell>
        <mxCell id="Kga4_z5G7O0Kx7oM56VR-98" style="edgeStyle=orthogonalEdgeStyle;rounded=0;orthogonalLoop=1;jettySize=auto;html=1;exitX=0.75;exitY=1;exitDx=0;exitDy=0;entryX=0.5;entryY=1;entryDx=0;entryDy=0;" edge="1" parent="1" source="Kga4_z5G7O0Kx7oM56VR-1" target="Kga4_z5G7O0Kx7oM56VR-23">
          <mxGeometry relative="1" as="geometry" />
        </mxCell>
        <mxCell id="Kga4_z5G7O0Kx7oM56VR-1" value="innovus" style="rounded=1;whiteSpace=wrap;html=1;fillColor=#FFB366;" vertex="1" parent="1">
          <mxGeometry x="-10" y="150" width="90" height="40" as="geometry" />
        </mxCell>
        <mxCell id="Kga4_z5G7O0Kx7oM56VR-31" value="starrc" style="rounded=1;whiteSpace=wrap;html=1;fillColor=#FFB366;" vertex="1" parent="1">
          <mxGeometry x="90" y="381" width="90" height="40" as="geometry" />
        </mxCell>
        <mxCell id="Kga4_z5G7O0Kx7oM56VR-86" style="edgeStyle=orthogonalEdgeStyle;rounded=0;orthogonalLoop=1;jettySize=auto;html=1;exitX=1;exitY=0.5;exitDx=0;exitDy=0;entryX=0.5;entryY=0;entryDx=0;entryDy=0;" edge="1" parent="1" source="Kga4_z5G7O0Kx7oM56VR-8" target="Kga4_z5G7O0Kx7oM56VR-31">
          <mxGeometry relative="1" as="geometry" />
        </mxCell>
        <mxCell id="Kga4_z5G7O0Kx7oM56VR-91" style="edgeStyle=orthogonalEdgeStyle;rounded=0;orthogonalLoop=1;jettySize=auto;html=1;exitX=1;exitY=0.5;exitDx=0;exitDy=0;entryX=0.5;entryY=1;entryDx=0;entryDy=0;" edge="1" parent="1" source="Kga4_z5G7O0Kx7oM56VR-67" target="Kga4_z5G7O0Kx7oM56VR-59">
          <mxGeometry relative="1" as="geometry">
            <mxPoint x="190" y="713" as="targetPoint" />
          </mxGeometry>
        </mxCell>
        <mxCell id="Kga4_z5G7O0Kx7oM56VR-93" value="STA(PT)" style="rounded=1;whiteSpace=wrap;html=1;fillColor=#FFB366;" vertex="1" parent="1">
          <mxGeometry x="270" y="550" width="90" height="40" as="geometry" />
        </mxCell>
        <mxCell id="Kga4_z5G7O0Kx7oM56VR-95" style="edgeStyle=orthogonalEdgeStyle;rounded=0;orthogonalLoop=1;jettySize=auto;html=1;exitX=1;exitY=0.5;exitDx=0;exitDy=0;entryX=0.5;entryY=0;entryDx=0;entryDy=0;" edge="1" parent="1" source="Kga4_z5G7O0Kx7oM56VR-4" target="Kga4_z5G7O0Kx7oM56VR-93">
          <mxGeometry relative="1" as="geometry" />
        </mxCell>
        <mxCell id="Kga4_z5G7O0Kx7oM56VR-97" style="edgeStyle=orthogonalEdgeStyle;rounded=0;orthogonalLoop=1;jettySize=auto;html=1;exitX=0.5;exitY=1;exitDx=0;exitDy=0;entryX=0.6;entryY=0.125;entryDx=0;entryDy=0;entryPerimeter=0;" edge="1" parent="1" source="Kga4_z5G7O0Kx7oM56VR-25" target="Kga4_z5G7O0Kx7oM56VR-93">
          <mxGeometry relative="1" as="geometry" />
        </mxCell>
      </root>
    </mxGraphModel>
  </diagram>
</mxfile>
